<svg width="75" height="59" viewBox="0 0 75 59" fill="none" xmlns="http://www.w3.org/2000/svg">
<rect width="75" height="59" fill="white"/>
<path d="M35.1875 37C35.4982 37 35.75 36.7482 35.75 36.4375C35.75 36.1268 35.4982 35.875 35.1875 35.875C34.8768 35.875 34.625 36.1268 34.625 36.4375C34.625 36.7482 34.8768 37 35.1875 37Z" fill="#22262A" stroke="#22262A" stroke-width="2" stroke-miterlimit="10" stroke-linecap="round" stroke-linejoin="round"/>
<path d="M43.0625 37C43.3732 37 43.625 36.7482 43.625 36.4375C43.625 36.1268 43.3732 35.875 43.0625 35.875C42.7518 35.875 42.5 36.1268 42.5 36.4375C42.5 36.7482 42.7518 37 43.0625 37Z" fill="#22262A" stroke="#22262A" stroke-width="2" stroke-miterlimit="10" stroke-linecap="round" stroke-linejoin="round"/>
<path d="M29 19H31.25L33.5 32.5H44.75L47 22.375H32.375" stroke="#22262A" stroke-width="2" stroke-linecap="round" stroke-linejoin="round"/>
<circle cx="50" cy="16" r="11" fill="#FB7181" stroke="white" stroke-width="2"/>
<path d="M47.5336 18.63C47.7602 18.45 47.8636 18.3667 47.8436 18.38C48.4969 17.84 49.0102 17.3967 49.3836 17.05C49.7636 16.7033 50.0836 16.34 50.3436 15.96C50.6036 15.58 50.7336 15.21 50.7336 14.85C50.7336 14.5767 50.6702 14.3633 50.5436 14.21C50.4169 14.0567 50.2269 13.98 49.9736 13.98C49.7202 13.98 49.5202 14.0767 49.3736 14.27C49.2336 14.4567 49.1636 14.7233 49.1636 15.07H47.5136C47.5269 14.5033 47.6469 14.03 47.8736 13.65C48.1069 13.27 48.4102 12.99 48.7836 12.81C49.1636 12.63 49.5836 12.54 50.0436 12.54C50.8369 12.54 51.4336 12.7433 51.8336 13.15C52.2402 13.5567 52.4436 14.0867 52.4436 14.74C52.4436 15.4533 52.2002 16.1167 51.7136 16.73C51.2269 17.3367 50.6069 17.93 49.8536 18.51H52.5536V19.9H47.5336V18.63Z" fill="white"/>
</svg>
