<svg width="87" height="13" viewBox="0 0 87 13" fill="none" xmlns="http://www.w3.org/2000/svg">
<path d="M50.371 4.83813L46.385 7.60107L47.555 12.0912L43.683 9.37915L39.561 11.9471L41.153 7.50708L37.436 4.60718L42.292 4.57507L44.117 0.213135L45.526 4.63318L50.371 4.83813Z" fill="#FFC600"/>
<path d="M32.101 4.83813L28.116 7.60107L29.286 12.0912L25.414 9.37915L21.292 11.9471L22.884 7.50708L19.166 4.60718L24.023 4.57507L25.848 0.213135L27.257 4.63318L32.101 4.83813Z" fill="#FFC600"/>
<path d="M13.831 4.83813L9.84601 7.60107L11.016 12.0912L7.14301 9.37915L3.02103 11.9471L4.61301 7.50708L0.89502 4.60718L5.75101 4.57507L7.57602 0.213135L8.98502 4.63318L13.831 4.83813Z" fill="#FFC600"/>
<path d="M68.642 4.83813L64.657 7.60107L65.827 12.0912L61.955 9.37915L57.833 11.9471L59.425 7.50708L55.707 4.60718L60.564 4.57507L62.389 0.213135L63.798 4.63318L68.642 4.83813Z" fill="#FFC600"/>
<path d="M86.913 4.83813L82.927 7.60107L84.097 12.0912L80.224 9.37915L76.1021 11.9471L77.694 7.50708L73.976 4.60718L78.832 4.57507L80.657 0.213135L82.066 4.63318L86.913 4.83813Z" fill="#C1C8CE"/>
</svg>
